<svg xmlns="http://www.w3.org/2000/svg" version="1.1" xmlns:xlink="http://www.w3.org/1999/xlink" xmlns:svgjs="http://svgjs.com/svgjs" width="1800" height="1000" preserveAspectRatio="none" viewBox="0 0 1800 1000"><g mask="url(&quot;#SvgjsMask1002&quot;)" fill="none"><rect width="1800" height="1000" x="0" y="0" fill="rgba(34, 0, 255, 1)"></rect><path d="M0,797.228C154.32,823.846,322.542,791.182,449.914,700.08C575.117,610.53,650.042,461.604,680.273,310.67C707.308,175.693,634.622,47.622,607.633,-87.364C582.425,-213.442,599.978,-350.772,526.877,-456.542C450.333,-567.294,321.703,-622.552,199.182,-678.352C58.909,-742.237,-91.11,-856.377,-236.081,-804.02C-381.978,-751.329,-421.217,-565.026,-493.961,-428.02C-551.513,-319.627,-577.412,-205.075,-615.958,-88.561C-664.094,56.941,-804.883,199.33,-748.672,341.907C-693.049,482.993,-489.695,481.556,-360.121,560.359C-234.824,636.561,-144.516,772.301,0,797.228" fill="#1600a6"></path><path d="M1800 1603.978C1922.741 1609.836 2057.047 1627.134 2158.146 1557.286 2258.573 1487.902 2295.876 1358.568 2326.308 1240.357 2353.052 1136.473 2329.297 1032.048 2320.893 925.107 2311.834 809.8340000000001 2327.147 691.587 2275.067 588.352 2214.582 468.456 2133.848 339.62800000000004 2005.539 299.999 1877.038 260.31100000000004 1744.588 336.043 1619.695 385.937 1505.23 431.66499999999996 1379.579 474.048 1311.934 577.0889999999999 1246.738 676.4 1277.205 805 1266.8899999999999 923.35 1257.243 1034.045 1218.81 1144.041 1253.318 1249.662 1289.8229999999999 1361.394 1364.532 1460.186 1463.171 1524.116 1562.003 1588.171 1682.36 1598.363 1800 1603.978" fill="#6f59ff"></path></g><defs><mask id="SvgjsMask1002"><rect width="1800" height="1000" fill="#ffffff"></rect></mask></defs></svg>